<svg version="1.1" xmlns="http://www.w3.org/2000/svg" viewBox="0 0 966.25 392.5" width="966.25" height="392.5" filter="invert(93%) hue-rotate(180deg)">
  <!-- svg-source:excalidraw -->
  
  <defs>
    <style>
      @font-face {
        font-family: "Virgil";
        src: url("https://excalidraw.com/Virgil.woff2");
      }
      @font-face {
        font-family: "Cascadia";
        src: url("https://excalidraw.com/Cascadia.woff2");
      }
    </style>
  </defs>
  <rect x="0" y="0" width="966.25" height="392.5" fill="#ffffff"></rect><g stroke-linecap="round" transform="translate(133.625 119.375) rotate(0 24.5 23)"><path d="M7.28 6.33 C7.28 6.33, 7.28 6.33, 7.28 6.33 M7.28 6.33 C7.28 6.33, 7.28 6.33, 7.28 6.33 M1.08 19.39 C2.65 18.39, 5.72 12.61, 13.22 3.37 M1.42 19.75 C4.62 15.39, 6.82 12.25, 14.32 3.58 M2.08 26.96 C4.94 19.05, 10.42 13.68, 25.13 -0.34 M2.24 24.99 C5.91 20.04, 12.02 12.72, 22.9 0.52 M3.34 28.89 C10.06 20, 18.45 10.82, 28.14 4.4 M2.48 29.76 C9.12 22.46, 15.14 13.89, 26.55 3.28 M3.36 31.99 C10.06 25.91, 19.66 19.13, 32.48 2.38 M5.75 34.32 C15.47 22.3, 23.49 11.39, 31.43 3.92 M5 38.18 C12.96 29.71, 21.52 21.81, 34.56 5.94 M6.19 37.37 C13.21 30.06, 21.16 22.08, 33.95 5.87 M9.95 38.85 C19.48 29.38, 27.37 15.9, 39.22 4.11 M9.63 40.14 C19.11 28.02, 29.24 17.52, 40.92 3.75 M15.26 43.88 C21.25 31.6, 31.44 18.63, 40.4 8.35 M13.95 42.12 C21.35 33.57, 28.41 26.43, 42.95 8.9 M16.48 43.28 C25.55 33.05, 35.6 23.3, 45.32 10.88 M16.97 44.44 C23.63 37.04, 32.3 28.2, 44.41 12.34 M18.73 44.62 C29.45 34.92, 39.7 22.98, 45.23 17.23 M19.34 45.98 C26.66 37.46, 35.27 29.75, 46.99 15.09 M23.88 47.24 C32.88 35.17, 42.36 26.88, 49.11 20.61 M26.49 45.35 C31.55 38.26, 39.69 30.67, 49.13 19.28 M31.13 47.19 C37 40.09, 43.92 30.26, 50.21 24.9 M30.95 46.52 C36.78 39.74, 40.41 35.08, 49.41 24.79" stroke="#4c6ef5" stroke-width="0.5" fill="none"></path><path d="M23.58 0.28 C28.67 -0.21, 35.94 1.86, 39.99 4.83 C44.04 7.81, 46.65 13.44, 47.88 18.11 C49.11 22.79, 49.51 28.65, 47.36 32.88 C45.22 37.12, 39.97 41.55, 35.01 43.53 C30.06 45.5, 22.67 45.96, 17.66 44.73 C12.65 43.5, 7.9 40.29, 4.93 36.15 C1.96 32, -0.51 24.78, -0.16 19.86 C0.19 14.94, 2.29 9.9, 7.03 6.62 C11.76 3.34, 23.7 0.84, 28.26 0.17 C32.82 -0.49, 34.41 2.2, 34.38 2.62 M22.55 0.67 C27.69 -0.04, 35.83 0.62, 39.92 3.51 C44.01 6.41, 45.89 12.84, 47.07 18.03 C48.25 23.23, 49 30.24, 47 34.69 C45.01 39.14, 40.08 43.19, 35.1 44.73 C30.11 46.27, 22.05 45.25, 17.1 43.93 C12.14 42.61, 8.11 40.93, 5.37 36.8 C2.63 32.66, 0.55 23.96, 0.67 19.11 C0.8 14.26, 2.28 10.65, 6.12 7.71 C9.97 4.76, 20.77 2.73, 23.76 1.45 C26.76 0.16, 24.24 -0.02, 24.07 -0.03" stroke="#000000" stroke-width="1" fill="none"></path></g><g stroke-linecap="round" transform="translate(323.125 118.375) rotate(0 24.5 23)"><path d="M4.08 11.49 C4.08 11.49, 4.08 11.49, 4.08 11.49 M4.08 11.49 C4.08 11.49, 4.08 11.49, 4.08 11.49 M1.5 19.45 C6.62 14.92, 13.21 7.31, 17.67 0.14 M1.88 20.22 C7.5 14.17, 12.61 6.89, 18.37 2.47 M1.82 28.02 C6.01 21.29, 11.17 14.1, 23.02 1.15 M0.7 26.65 C6.32 19.08, 13.86 11.88, 23.55 0.68 M1.8 32.83 C6.16 23.71, 11.65 17.92, 28.1 3.73 M3.44 31.32 C11.27 22.62, 20.39 12.72, 28.36 1.1 M4.2 36.79 C14.34 21.9, 24.99 11.53, 34.42 2.16 M4.43 34.83 C15.69 22.48, 25.33 10.86, 34.37 2.43 M6.97 37.35 C19.19 27.15, 26.33 14.87, 37.47 2.38 M6.99 38.92 C13.31 31.75, 19.53 23.81, 36.37 3.58 M9.76 42.85 C18.95 31.7, 33.12 15.24, 40.4 5.75 M8.56 41.54 C16.68 34.82, 23.73 26.54, 39.74 7.29 M14.51 43.34 C23.89 30.08, 35.2 15.61, 42.69 8.66 M13.06 43.44 C24.17 31.44, 35.34 17.75, 43.84 10.43 M19.31 44.13 C27.85 31.19, 36.8 19.6, 45.98 11.34 M17.46 44.58 C27.12 34.21, 33.88 24.73, 45.55 12.68 M22.85 47.63 C30.38 34.44, 39.79 26.11, 45.23 17.93 M21.97 45.65 C29.24 38.89, 34.18 29.65, 47.16 17.28 M27.67 45.37 C34.8 38.16, 42.47 29.04, 49.22 22.23 M25.96 46.95 C32.05 39.96, 38.37 34.74, 46.62 22.69 M33.92 46.84 C35.65 39.22, 42.75 34.32, 50.43 29.32 M33.49 44.93 C38.92 37.45, 45.08 32.55, 48.05 26.88" stroke="#4c6ef5" stroke-width="0.5" fill="none"></path><path d="M16.49 0.77 C21.06 -0.95, 28.55 -0.9, 33.47 0.96 C38.4 2.82, 43.56 7.5, 46.04 11.91 C48.51 16.33, 49.41 22.53, 48.31 27.45 C47.22 32.37, 43.43 38.44, 39.45 41.42 C35.46 44.4, 29.76 45.49, 24.42 45.33 C19.08 45.18, 11.38 43.49, 7.42 40.5 C3.46 37.5, 1.19 32.2, 0.65 27.35 C0.1 22.5, 1.22 15.97, 4.16 11.4 C7.1 6.83, 15.42 1.58, 18.31 -0.08 C21.19 -1.73, 21.26 1.13, 21.46 1.49 M14.16 3.87 C18.07 1.17, 24.04 -0.6, 28.79 0.08 C33.55 0.77, 39.45 4.08, 42.67 7.98 C45.9 11.88, 47.98 18.45, 48.14 23.49 C48.31 28.54, 47.05 34.46, 43.65 38.27 C40.25 42.08, 32.84 45.51, 27.74 46.36 C22.64 47.2, 17.52 45.83, 13.05 43.34 C8.58 40.85, 2.75 36.21, 0.93 31.42 C-0.88 26.64, 0.24 19.44, 2.16 14.64 C4.09 9.83, 10.9 4.58, 12.49 2.6 C14.08 0.63, 11.47 2.6, 11.7 2.77" stroke="#000000" stroke-width="1" fill="none"></path></g><g stroke-linecap="round" transform="translate(516.125 115.375) rotate(0 24.5 23)"><path d="M12.49 2.91 C12.49 2.91, 12.49 2.91, 12.49 2.91 M12.49 2.91 C12.49 2.91, 12.49 2.91, 12.49 2.91 M5.07 17.22 C8.96 15.62, 9.76 10.04, 16.89 2.69 M5.84 17.56 C11.29 11.21, 15.51 5.83, 19.22 1.13 M5.46 23.72 C10.39 17.1, 14.86 10.88, 24.59 0.31 M4.1 23.28 C11.93 15.21, 20.13 5.75, 24.12 -0.32 M4.57 30.26 C10.36 20.4, 19.51 11.52, 31.14 2.43 M3.05 32.26 C14.71 20.57, 25.14 7.78, 28.52 2.13 M7.51 35.1 C14.73 23.6, 26.47 11.12, 33.64 4.69 M5.55 35.7 C12.85 26.19, 20.89 17.83, 33.91 4.02 M6.96 39.76 C14.56 29.71, 20.1 24.79, 34.91 3.66 M8.52 37.97 C15.32 30.11, 21.35 21.95, 36.12 6.1 M11.45 40.14 C23.34 31.34, 29.91 18.34, 39.33 5.97 M10.13 41.45 C17.84 34.37, 23.99 27, 40.87 8.31 M13.83 42.94 C25.41 29.3, 35.78 17.43, 43.29 10.77 M13.94 43.66 C25.01 32.04, 34.37 21.46, 45.07 9.92 M17.84 44.63 C24.83 33.82, 33.18 26.72, 45.06 13.17 M18.29 45.93 C23.28 37.71, 29.19 31.05, 46.39 13.68 M24.56 46.15 C28.64 38.32, 37.54 26.67, 48.46 16.64 M22.58 46.85 C30.47 37.01, 35.91 29.63, 47.82 17.95 M25.52 48.33 C33.06 41.23, 38.72 34.3, 48.83 21.02 M27.09 47.39 C34.67 38.89, 44.01 28.13, 49.29 21.4 M33.22 46.54 C37.4 41.42, 44.25 34.42, 53.4 26.61 M31.31 48.28 C37.51 40.5, 46.33 31.61, 50.96 24.87" stroke="#4c6ef5" stroke-width="0.5" fill="none"></path><path d="M28.19 0.31 C33.21 0.84, 39.08 4.38, 42.53 8.11 C45.97 11.84, 48.76 17.79, 48.88 22.67 C48.99 27.55, 46.48 33.46, 43.22 37.38 C39.96 41.3, 34.56 45.4, 29.31 46.2 C24.07 46.99, 16.3 44.62, 11.72 42.15 C7.13 39.68, 3.36 35.77, 1.81 31.38 C0.25 26.98, 0.6 20.56, 2.39 15.81 C4.18 11.05, 8.05 5.23, 12.55 2.84 C17.05 0.46, 26.1 1.65, 29.37 1.47 C32.64 1.3, 32.31 1.71, 32.19 1.77 M36.43 1.86 C40.84 3.28, 44.75 8.35, 46.58 12.81 C48.4 17.27, 48.78 23.61, 47.35 28.62 C45.93 33.64, 42.27 40.11, 38.03 42.9 C33.78 45.7, 26.97 45.87, 21.86 45.41 C16.75 44.96, 10.91 43.73, 7.39 40.18 C3.87 36.63, 1.01 29.17, 0.75 24.11 C0.49 19.06, 2.84 13.8, 5.84 9.85 C8.84 5.89, 13.84 1.84, 18.73 0.38 C23.62 -1.08, 32.5 0.71, 35.16 1.1 C37.83 1.49, 35.06 1.94, 34.71 2.74" stroke="#000000" stroke-width="1" fill="none"></path></g><g stroke-linecap="round" transform="translate(815.5 114.5) rotate(0 24.5 23)"><path d="M6.05 7.91 C6.05 7.91, 6.05 7.91, 6.05 7.91 M6.05 7.91 C6.05 7.91, 6.05 7.91, 6.05 7.91 M1.77 21.39 C2.83 15.54, 6.51 12.25, 17.61 2.39 M1.93 19.42 C3.95 16.43, 8.35 11.09, 15.37 3.25 M3.03 23.32 C8.63 15.73, 15.9 7.85, 24.55 2.61 M2.16 24.19 C7.87 17.91, 12.99 10.39, 22.96 1.48 M3.05 26.42 C8.93 21.29, 17.68 15.49, 28.89 0.58 M5.44 28.75 C13.91 18.17, 20.68 8.7, 27.84 2.12 M4.03 33.36 C11.34 25.67, 19.22 18.57, 30.97 4.14 M5.22 32.55 C11.61 25.99, 18.92 18.75, 30.36 4.07 M7.02 36.3 C15.91 27.56, 23.18 14.78, 34.32 3.82 M6.69 37.59 C15.52 26.21, 25.02 16.46, 36.02 3.47 M11.67 42.08 C18.1 29.31, 28.72 15.83, 38.12 5.04 M10.36 40.32 C18.1 31.4, 25.48 23.88, 40.67 5.59 M13.55 40.73 C22.85 30.23, 33.13 20.21, 43.04 7.58 M14.04 41.88 C20.87 34.29, 29.72 25.25, 42.13 9.03 M15.79 42.07 C27.02 31.8, 37.76 19.29, 43.6 13.17 M16.41 43.43 C24.08 34.49, 33.05 26.37, 45.37 11.03 M18.32 47.71 C28.61 34.1, 39.43 24.27, 47.48 16.55 M20.93 45.82 C27.13 37.38, 36.42 28.47, 47.51 15.22 M26.23 46.91 C34.3 37.31, 43.36 25, 51.21 17.82 M26.05 46.23 C33.38 37.71, 38.52 31.3, 50.42 17.71 M32.44 44.62 C37.79 39.28, 46.16 32.46, 51.4 24.92 M32.61 43.89 C39.67 37.04, 43.41 31.15, 49.62 24.33" stroke="#4c6ef5" stroke-width="0.5" fill="none"></path><path d="M20.8 0.18 C25.76 -0.72, 33.17 0.86, 37.66 3.48 C42.16 6.11, 46.12 11.08, 47.76 15.92 C49.4 20.75, 49.62 28.05, 47.49 32.5 C45.37 36.95, 39.72 40.41, 35.03 42.63 C30.33 44.85, 24.18 46.67, 19.33 45.8 C14.49 44.94, 9.08 41.48, 5.93 37.44 C2.79 33.4, 0.48 26.42, 0.46 21.56 C0.43 16.69, 1.98 11.75, 5.78 8.22 C9.59 4.7, 20.44 1.88, 23.27 0.42 C26.11 -1.04, 22.74 -0.94, 22.8 -0.53 M35.17 1.5 C39.48 3.3, 44.24 8.26, 46.36 13.08 C48.48 17.89, 49.3 25.61, 47.91 30.39 C46.51 35.18, 42.28 39, 38 41.79 C33.72 44.58, 27.34 47.7, 22.23 47.14 C17.12 46.57, 10.87 42.13, 7.35 38.4 C3.83 34.68, 1.52 29.68, 1.11 24.78 C0.7 19.87, 1.96 13.21, 4.89 8.96 C7.81 4.72, 13.65 0.41, 18.68 -0.68 C23.71 -1.77, 32.52 1.57, 35.09 2.4 C37.66 3.24, 34.34 4.21, 34.09 4.35" stroke="#000000" stroke-width="1" fill="none"></path></g><g stroke-linecap="round"><g transform="translate(196.25 140) rotate(0 56.07553483732042 -0.39286770470440047)"><path d="M-0.05 -0.98 C19.07 -1.24, 95.09 -1.75, 113.68 -1.91 M-1.53 1.13 C17.62 1.04, 94.12 -0.36, 113.36 -0.72" stroke="#000000" stroke-width="1" fill="none"></path></g><g transform="translate(196.25 140) rotate(0 56.07553483732042 -0.39286770470440047)"><path d="M83.73 12.02 C90.28 6.09, 96.17 5.27, 111.36 -0.1 M84.52 10.13 C91.75 6.88, 99.11 4.02, 113.9 0.24" stroke="#000000" stroke-width="1" fill="none"></path></g><g transform="translate(196.25 140) rotate(0 56.07553483732042 -0.39286770470440047)"><path d="M83.36 -8.49 C89.92 -10.04, 95.9 -6.46, 111.36 -0.1 M84.14 -10.39 C91.34 -8.4, 98.79 -6.02, 113.9 0.24" stroke="#000000" stroke-width="1" fill="none"></path></g></g><g stroke-linecap="round"><g transform="translate(395 144.375) rotate(0 55.69665410332385 -0.46696863092481067)"><path d="M-1 -0.72 C17.53 -1.02, 93.41 -2.27, 112.39 -2.45 M0.68 1.51 C18.94 1.37, 92.78 -1.16, 111.39 -1.54" stroke="#000000" stroke-width="1" fill="none"></path></g><g transform="translate(395 144.375) rotate(0 55.69665410332385 -0.46696863092481067)"><path d="M82.29 9.33 C92.68 5.96, 104.91 -0.35, 113.35 -3.22 M82.86 9.25 C92.72 7.1, 100.24 3.44, 110.52 -2.05" stroke="#000000" stroke-width="1" fill="none"></path></g><g transform="translate(395 144.375) rotate(0 55.69665410332385 -0.46696863092481067)"><path d="M81.72 -11.19 C92.22 -6.37, 104.68 -4.5, 113.35 -3.22 M82.29 -11.26 C92.16 -7.1, 99.85 -4.44, 110.52 -2.05" stroke="#000000" stroke-width="1" fill="none"></path></g></g><g stroke-linecap="round"><g transform="translate(583.3787161510438 135.1623270339519) rotate(0 104.12462383918466 1.5866199475079839)"><path d="M-0.11 -1.2 C35.04 -0.56, 175.06 2.11, 209.87 3.11 M-1.62 0.79 C33.49 1.65, 173.65 3.99, 209.12 4.37" stroke="#000000" stroke-width="1" fill="none"></path></g><g transform="translate(583.3787161510438 135.1623270339519) rotate(0 104.12462383918466 1.5866199475079839)"><path d="M178.79 14.85 C186.09 10.84, 195.08 8.3, 209.28 2.7 M181.33 15.18 C188.4 12.19, 196.13 8.17, 209.04 3.8" stroke="#000000" stroke-width="1" fill="none"></path></g><g transform="translate(583.3787161510438 135.1623270339519) rotate(0 104.12462383918466 1.5866199475079839)"><path d="M179.08 -5.67 C186.2 -5.24, 195.12 -3.33, 209.28 2.7 M181.63 -5.33 C188.48 -2.48, 196.13 -0.65, 209.04 3.8" stroke="#000000" stroke-width="1" fill="none"></path></g></g><g stroke-linecap="round" transform="translate(310.5 235.75) rotate(0 24.5 23)"><path d="M2.93 13.14 C2.93 13.14, 2.93 13.14, 2.93 13.14 M2.93 13.14 C2.93 13.14, 2.93 13.14, 2.93 13.14 M1.24 20.07 C7.16 13.04, 11.85 7.69, 15.61 5.25 M1.34 20.79 C7.2 14.99, 11.46 10.28, 17.39 4.41 M0 27.8 C5.31 18.98, 11.97 13.82, 21.32 3.13 M0.45 29.1 C4.22 22.33, 8.86 17.13, 22.65 3.64 M5.4 30.83 C9.28 23.23, 17.98 11.81, 28.66 2.08 M3.43 31.53 C11.13 21.91, 16.39 14.74, 28.01 3.38 M4.4 35.27 C13.42 26.41, 20.58 17.76, 32.96 1.92 M5.97 34.33 C15.46 23.68, 26.68 10.75, 33.42 2.3 M9.47 36.5 C16.83 27.77, 26.81 17.17, 38.84 6 M7.56 38.24 C16.93 26.75, 28.96 14.17, 36.4 4.26 M8.55 42.94 C17.62 33.79, 22.45 27.54, 41.28 8.34 M10.14 41.96 C15.61 35.64, 21.75 26.76, 40.87 6.22 M14.76 42.91 C26.56 29.66, 37.25 17.73, 44.17 8.59 M13.63 43.76 C24.33 30.77, 33.6 19.54, 44.49 8.9 M18.39 43.18 C26.61 34.94, 35.39 27.88, 45.45 12.26 M18.74 43.73 C29.45 31.84, 38.41 20.49, 47.61 11.68 M22.54 44.59 C32.67 32.86, 42.16 23.72, 50.25 14.12 M22.32 44.08 C31.35 35.41, 39.28 26.54, 49.15 15.77 M27.66 47.2 C33.16 38.49, 38.04 31.1, 51.35 18.62 M26.74 46.1 C34.17 37.32, 42.36 30.23, 48.84 21.37 M36.65 41.54 C40.88 39.32, 40.22 37.09, 48.35 26.1 M36.71 42.04 C41.32 36.95, 45.56 30.95, 49.22 27.54" stroke="#e64980" stroke-width="0.5" fill="none"></path><path d="M15.22 2.68 C19.7 0.72, 27.51 0.64, 32.5 1.78 C37.49 2.92, 42.36 5.37, 45.15 9.52 C47.94 13.67, 49.89 21.69, 49.23 26.66 C48.57 31.64, 44.91 36.18, 41.18 39.38 C37.44 42.58, 32.19 45.48, 26.83 45.87 C21.46 46.26, 13.41 44.61, 8.99 41.71 C4.57 38.82, 1.31 33.27, 0.3 28.51 C-0.71 23.75, -0.59 17.81, 2.91 13.16 C6.42 8.51, 17.19 2.66, 21.31 0.59 C25.43 -1.48, 27.49 0.49, 27.63 0.73 M23.34 0.74 C28.12 0.06, 32.86 2.68, 37.02 5.17 C41.18 7.65, 46.43 11.03, 48.3 15.63 C50.16 20.22, 50.56 28.07, 48.19 32.74 C45.82 37.42, 38.96 41.81, 34.07 43.67 C29.17 45.53, 23.97 45.25, 18.83 43.88 C13.68 42.5, 6.42 39.13, 3.21 35.43 C0.01 31.72, -1.01 26.38, -0.38 21.64 C0.24 16.9, 3.2 10.58, 6.95 6.98 C10.7 3.38, 19.73 1.23, 22.1 0.03 C24.46 -1.16, 21.28 -0.76, 21.16 -0.21" stroke="#000000" stroke-width="1" fill="none"></path></g><g stroke-linecap="round" transform="translate(465.5 234.5) rotate(0 24.5 23)"><path d="M11.32 3.21 C11.32 3.21, 11.32 3.21, 11.32 3.21 M11.32 3.21 C11.32 3.21, 11.32 3.21, 11.32 3.21 M4.61 18.39 C7.26 15.49, 10.62 8.89, 16.33 0.13 M3.1 17.82 C7.73 14.15, 10.67 11.02, 16.94 1.49 M4.26 24.45 C7.31 19.6, 14.98 13.43, 22.14 1.99 M3.16 24.22 C10.16 17.73, 14.88 12.12, 24.75 0.11 M5.59 28.91 C10.04 24.79, 12.92 18.96, 28.73 2.7 M4.33 29.8 C10.33 21.67, 16.94 15.09, 28.55 2.03 M5.26 34.88 C15.39 22.38, 29.19 7.71, 31.66 4.19 M6.49 34.58 C12.62 26.21, 18.93 18.19, 31.83 3.46 M7.81 35.87 C20.11 25.2, 29.86 12.38, 37.98 4.21 M8.71 36.62 C15.89 27, 25.08 18.08, 35.94 5.53 M9.5 41.48 C18.21 34.58, 24.41 25.47, 41.47 6.54 M10.92 40.38 C20.89 28.46, 31.59 16.61, 40.09 6.18 M14.13 42.3 C21.93 32.18, 30.14 23.37, 43.72 8.65 M14.46 43.41 C24.56 30.9, 34.65 18.88, 44.24 8.59 M18.77 44.89 C23.81 37.48, 29.68 29.6, 46.02 11.16 M17.66 43.94 C27.9 32.22, 37.19 20.45, 45.74 12.33 M23.03 44.2 C30.59 36.73, 40.21 26.31, 47.67 15.51 M21.79 45.16 C29.28 37.95, 35.01 30.22, 47.49 15.74 M28.78 44.23 C34.94 36.95, 44.54 26.04, 51.34 20.9 M26.67 46.48 C31.11 41.28, 37.66 34.47, 49.95 20.63 M32.65 46.79 C37.58 40.6, 46.84 33.32, 53.39 21.98 M31.87 48.04 C37.25 40.34, 43.38 32.34, 51.38 24.62" stroke="#e64980" stroke-width="0.5" fill="none"></path><path d="M27.73 0.63 C32.57 0.9, 38.5 4.07, 42.11 7.59 C45.72 11.1, 49.13 16.84, 49.39 21.72 C49.64 26.6, 46.84 32.76, 43.64 36.85 C40.43 40.95, 35.17 45.37, 30.13 46.3 C25.1 47.23, 18.05 44.85, 13.45 42.43 C8.86 40.01, 4.73 36.04, 2.55 31.78 C0.38 27.51, -1.13 21.67, 0.39 16.85 C1.9 12.03, 6.61 5.48, 11.64 2.85 C16.67 0.21, 27.14 1.32, 30.57 1.02 C33.99 0.72, 32.38 0.78, 32.18 1.06 M27.91 0.15 C32.73 0.38, 38.36 3.02, 41.71 6.86 C45.06 10.7, 47.55 18.36, 48 23.17 C48.46 27.98, 47.43 31.95, 44.44 35.74 C41.46 39.53, 35.47 44.39, 30.08 45.89 C24.69 47.4, 16.59 47.34, 12.1 44.75 C7.61 42.16, 4.89 35.31, 3.14 30.35 C1.39 25.4, 0.35 19.73, 1.58 15.03 C2.81 10.32, 6.19 4.73, 10.52 2.13 C14.85 -0.46, 24.87 -0.33, 27.57 -0.53 C30.26 -0.74, 26.51 0.39, 26.67 0.92" stroke="#000000" stroke-width="1" fill="none"></path></g><g stroke-linecap="round" transform="translate(608 232) rotate(0 24.5 23)"><path d="M10.49 3.81 C10.49 3.81, 10.49 3.81, 10.49 3.81 M10.49 3.81 C10.49 3.81, 10.49 3.81, 10.49 3.81 M3.38 17.97 C10.49 11.01, 13.91 3.94, 15.51 1.09 M2.82 18.57 C7.61 13.01, 12.93 7.53, 16.87 1.21 M4.2 22.37 C9.84 19.39, 14.18 9.77, 24.82 0.23 M3.97 24.22 C8.03 18.66, 13 14.72, 22.94 -0.23 M2.2 31.89 C12.2 19.95, 20.52 11.39, 30.81 -0.52 M3.08 31.07 C12.65 19.42, 23.75 6.79, 30.14 1.33 M5.64 33.5 C11.69 29.47, 15.57 19.36, 34.11 1.26 M5.34 35.18 C15.97 21.53, 27.01 7.77, 33.38 3.2 M5.62 38.82 C15.37 28.76, 22.95 22.5, 35.28 4.62 M6.36 37.92 C15.82 27.55, 26.02 15.1, 36.59 4.04 M11.62 41.32 C18.63 33.72, 23.49 26.98, 39.41 8.06 M10.52 39.99 C20.02 29.49, 29.61 19.59, 39.05 6.43 M12.18 43.69 C18.12 35.93, 25.42 28.24, 43.32 9.61 M13.28 44.53 C24.92 30.11, 37 16.52, 43.26 7.79 M18.64 44.1 C27.5 33.05, 35.94 23.11, 43.41 13.89 M17.69 44.22 C24.62 35.33, 31.53 27.56, 44.58 13.13 M21.16 44.85 C30.24 38.1, 36.41 29.79, 46.08 15.89 M22.12 45.62 C27.81 38.73, 33.02 32.43, 46.32 17.71 M25.07 45.37 C35.52 37.18, 42.34 29.57, 49.05 19.57 M27.31 45.03 C36.02 37.34, 43.1 28.09, 48.78 21.33 M30.84 46.29 C37.12 43.27, 42.32 37.76, 49.11 24.63 M32.09 46.31 C35.95 41.09, 39.53 36.77, 51.76 23.98" stroke="#e64980" stroke-width="0.5" fill="none"></path><path d="M28.23 -0.36 C33.12 0.08, 39.26 4.24, 42.65 7.95 C46.03 11.66, 48.38 16.97, 48.54 21.92 C48.7 26.86, 46.59 33.6, 43.59 37.59 C40.58 41.59, 35.73 44.82, 30.5 45.9 C25.26 46.99, 16.95 46.61, 12.19 44.1 C7.43 41.6, 3.63 35.56, 1.95 30.9 C0.27 26.23, 0.62 20.69, 2.09 16.13 C3.56 11.56, 5.85 6.18, 10.77 3.49 C15.69 0.8, 27.8 0.25, 31.6 -0.03 C35.39 -0.3, 33.76 1.28, 33.54 1.85 M23.96 -1.01 C28.8 -1.55, 34.86 0.74, 39.12 4.12 C43.37 7.49, 48.59 14.15, 49.49 19.23 C50.38 24.32, 47.13 30.58, 44.5 34.64 C41.87 38.7, 38.12 41.68, 33.71 43.59 C29.29 45.51, 23.25 47.52, 18.02 46.13 C12.78 44.73, 5.38 39.87, 2.28 35.25 C-0.81 30.63, -1.34 23.4, -0.54 18.41 C0.25 13.42, 3.08 8.56, 7.05 5.29 C11.02 2.02, 20.4 -0.55, 23.27 -1.2 C26.14 -1.84, 24.13 0.68, 24.28 1.4" stroke="#000000" stroke-width="1" fill="none"></path></g><g stroke-linecap="round"><g transform="translate(193.75 153.75) rotate(0 52.97649681381881 57.423552341595325)"><path d="M-0.61 -0.38 C7.6 4.28, 37.75 10.87, 48.12 29.01 C58.5 47.15, 51.9 94.2, 61.64 108.46 C71.38 122.73, 98.86 113.51, 106.57 114.58 M1.27 -1.62 C9.47 3.67, 37.03 11.99, 47.5 30.03 C57.97 48.07, 54.27 92.89, 64.08 106.63 C73.88 120.37, 99.23 111.53, 106.32 112.46" stroke="#000000" stroke-width="1" fill="none"></path></g><g transform="translate(193.75 153.75) rotate(0 52.97649681381881 57.423552341595325)"><path d="M85.12 123.12 C88.24 118.78, 95.71 116.69, 107.71 113.09 M86.52 121.92 C94.56 118.39, 102.29 114.29, 106.61 111.76" stroke="#000000" stroke-width="1" fill="none"></path></g><g transform="translate(193.75 153.75) rotate(0 52.97649681381881 57.423552341595325)"><path d="M83.74 107.65 C87.29 106.48, 95.04 107.57, 107.71 113.09 M85.14 106.44 C93.78 109.07, 102.05 111.11, 106.61 111.76" stroke="#000000" stroke-width="1" fill="none"></path></g></g><g stroke-linecap="round"><g transform="translate(372.47501748327454 261.57326522334426) rotate(0 41.94527560945892 0.002596647277698594)"><path d="M-0.23 -0.44 C14.06 -0.28, 71.33 1.38, 85.7 1.73 M-1.81 -1.72 C12.39 -1.93, 70.53 -0.1, 85.13 0.16" stroke="#000000" stroke-width="1" fill="none"></path></g><g transform="translate(372.47501748327454 261.57326522334426) rotate(0 41.94527560945892 0.002596647277698594)"><path d="M55.96 10.92 C66.85 8.64, 75.18 2.29, 85.39 -1.51 M55.98 10.38 C66.78 5.74, 78.42 2.88, 84.73 -0.06" stroke="#000000" stroke-width="1" fill="none"></path></g><g transform="translate(372.47501748327454 261.57326522334426) rotate(0 41.94527560945892 0.002596647277698594)"><path d="M56.47 -9.6 C67.33 -5.78, 75.51 -6.03, 85.39 -1.51 M56.49 -10.14 C67.18 -6.79, 78.63 -1.66, 84.73 -0.06" stroke="#000000" stroke-width="1" fill="none"></path></g></g><g stroke-linecap="round"><g transform="translate(524.9157891151023 260.91171681162587) rotate(0 35.13940050257389 0.08396819451979809)"><path d="M-0.57 -1.17 C11.11 -1.33, 59.06 -0.28, 70.85 0.18 M1.33 0.84 C12.76 1.3, 57.84 1.47, 69.7 1.26" stroke="#000000" stroke-width="1" fill="none"></path></g><g transform="translate(524.9157891151023 260.91171681162587) rotate(0 35.13940050257389 0.08396819451979809)"><path d="M39.62 11.04 C50.26 6.24, 62.89 5.28, 70.39 0.61 M41.52 11.61 C49.75 9.04, 57.61 5.51, 69.23 0.8" stroke="#000000" stroke-width="1" fill="none"></path></g><g transform="translate(524.9157891151023 260.91171681162587) rotate(0 35.13940050257389 0.08396819451979809)"><path d="M39.52 -9.48 C50.39 -6.81, 63.06 -0.29, 70.39 0.61 M41.41 -8.91 C49.8 -5.62, 57.69 -3.3, 69.23 0.8" stroke="#000000" stroke-width="1" fill="none"></path></g></g><g stroke-linecap="round"><g transform="translate(671.25 258.75) rotate(0 63.95132681646385 -52.70481975508369)"><path d="M0.24 0.06 C10.27 -1.23, 49.68 5.32, 61.17 -7.8 C72.65 -20.91, 57.82 -62.24, 69.13 -78.62 C80.43 -95, 118.76 -101.3, 129 -106.09 M-1.1 -0.95 C8.8 -2.07, 49.22 6.3, 60.83 -6.42 C72.44 -19.13, 57.24 -60.83, 68.56 -77.24 C79.87 -93.65, 118.58 -99.84, 128.72 -104.9" stroke="#000000" stroke-width="1" fill="none"></path></g><g transform="translate(671.25 258.75) rotate(0 63.95132681646385 -52.70481975508369)"><path d="M105.32 -84.32 C113.63 -92.74, 123.25 -102.1, 128.99 -103.91 M104.45 -86.3 C109.21 -90.63, 115.26 -93.72, 127.79 -104.08" stroke="#000000" stroke-width="1" fill="none"></path></g><g transform="translate(671.25 258.75) rotate(0 63.95132681646385 -52.70481975508369)"><path d="M98.84 -103.79 C109.6 -104.85, 121.67 -106.83, 128.99 -103.91 M97.97 -105.77 C104.19 -106.03, 111.58 -105.1, 127.79 -104.08" stroke="#000000" stroke-width="1" fill="none"></path></g></g><g transform="translate(21.25 49.75) rotate(0 86 17.5)"><text x="0" y="25" font-family="Virgil, Segoe UI Emoji" font-size="28px" fill="#000000" text-anchor="start" style="white-space: pre;" direction="ltr">common base</text></g><g stroke-linecap="round" transform="translate(10 43.75) rotate(0 101.25 25.625)"><path d="M0.67 -0.2 C66.98 -0.3, 131.53 1.3, 204.17 -0.77 M201.59 1.88 C202.58 13.76, 202.58 27.49, 200.52 50.94 M203.17 50.81 C144.76 50.48, 84.67 51.89, -1.39 52.71 M-1.83 52.85 C1.11 33.18, 0.94 17.48, 0.89 -0.8" stroke="#000000" stroke-width="1.5" fill="none" stroke-dasharray="8 9"></path></g><g transform="translate(483.75 343.75) rotate(0 82 17.5)"><text x="0" y="25" font-family="Virgil, Segoe UI Emoji" font-size="28px" fill="#000000" text-anchor="start" style="white-space: pre;" direction="ltr">temp branch</text></g><g stroke-linecap="round" transform="translate(463.75 336.25) rotate(0 102.5 23.125)"><path d="M-0.67 -0.5 C74.71 3.01, 149.29 -0.1, 206.72 -1.46 M205.06 -0.49 C206.95 18.66, 204.71 33.82, 206.81 47.6 M205.33 47.43 C124.86 45.91, 43.79 45.63, 1.49 46.19 M-0.51 45.13 C-0.61 28.64, 1.72 9.52, 0.08 -1.47" stroke="#000000" stroke-width="1.5" fill="none" stroke-dasharray="8 9"></path></g><g transform="translate(785 11.25) rotate(0 67 35)"><text x="67" y="25" font-family="Virgil, Segoe UI Emoji" font-size="28px" fill="#000000" text-anchor="middle" style="white-space: pre;" direction="ltr">new merge</text><text x="67" y="60" font-family="Virgil, Segoe UI Emoji" font-size="28px" fill="#000000" text-anchor="middle" style="white-space: pre;" direction="ltr">commit</text></g><g stroke-linecap="round" transform="translate(760 10) rotate(0 98.125 36.875)"><path d="M0.64 -0.2 C71.22 -2.55, 146.6 -0.17, 198.16 -0.96 M196.76 -0.7 C196.26 23.53, 195.36 42.16, 194.97 72.26 M196.79 73.38 C133.99 74.16, 72.5 72.28, 1.3 73.25 M-0.7 74.75 C-0.73 49.6, -0.38 20.64, 0.73 1.61" stroke="#000000" stroke-width="1.5" fill="none" stroke-dasharray="8 9"></path></g></svg>